<svg width="3628" height="1014" viewBox="0 0 3628 1014" fill="none" xmlns="http://www.w3.org/2000/svg">
<circle cx="450.5" cy="450.5" r="450.5" fill="#F2BCD7"/>
<path d="M536.327 456C513.11 456 495.843 450.4 484.527 439.2C473.327 427.883 467.727 410.617 467.727 387.4L467.727 347.15C467.727 323.817 473.327 306.55 484.527 295.35C495.843 284.15 513.11 278.55 536.327 278.55L604.227 278.55L604.227 224.3C604.227 214.5 609.127 209.6 618.927 209.6C628.727 209.6 633.627 214.5 633.627 224.3L633.627 441.3C633.627 451.1 628.727 456 618.927 456C609.127 456 604.227 451.1 604.227 441.3L604.227 438.85C598.743 444.45 591.568 448.708 582.702 451.625C573.835 454.542 562.81 456 549.627 456L536.327 456ZM536.327 426.6L549.627 426.6C565.027 426.6 577.977 424.617 588.477 420.65C598.977 416.683 604.227 410.617 604.227 402.45L604.227 307.95L536.327 307.95C521.16 307.95 510.835 310.75 505.352 316.35C499.868 321.833 497.127 332.1 497.127 347.15L497.127 387.4C497.127 402.567 499.868 412.892 505.352 418.375C510.952 423.858 521.277 426.6 536.327 426.6Z" fill="#F18B82"/>
<path d="M330.066 456.917C306.85 456.774 289.618 451.068 278.371 439.798C267.241 428.413 261.747 411.112 261.89 387.896L262.138 347.646C262.281 324.313 267.987 307.082 279.256 295.951C290.642 284.821 307.942 279.327 331.159 279.47L399.057 279.888L399.391 225.639C399.452 215.839 404.382 210.969 414.182 211.03C423.981 211.09 428.851 216.02 428.791 225.82L427.455 442.816C427.395 452.616 422.465 457.485 412.665 457.425C402.865 457.365 397.995 452.435 398.056 442.635L398.071 440.185C392.553 445.751 385.352 449.965 376.467 452.827C367.583 455.689 356.549 457.08 343.366 456.998L330.066 456.917ZM330.247 427.517L343.547 427.599C358.947 427.694 371.909 425.79 382.433 421.888C392.957 417.986 398.244 411.952 398.295 403.786L398.876 309.287L330.978 308.869C315.811 308.776 305.469 311.512 299.952 317.079C294.435 322.528 291.63 332.778 291.537 347.827L291.289 388.077C291.196 403.243 293.874 413.585 299.324 419.102C304.89 424.619 315.198 427.425 330.247 427.517Z" fill="#F18B82"/>
<path d="M405 675C397.3 675 392.167 671.033 389.6 663.1L340.95 516.8C337.917 507.933 341.067 501.867 350.4 498.6C359.617 495.45 365.8 498.6 368.95 508.05L408.5 625.825H406.225L443.5 508.05C446.067 500.35 451.667 496.5 460.3 496.5C468.467 496.5 473.717 500.583 476.05 508.75L510.875 624.6H509.475L549.9 507.7C553.283 498.25 559.583 495.217 568.8 498.6C578.017 501.867 580.933 508.167 577.55 517.5L524.35 663.1C521.433 671.033 515.95 675 507.9 675C499.617 675 494.25 670.917 491.8 662.75L455.75 542.35H459.6L420.4 663.1C419.233 666.95 417.308 669.925 414.625 672.025C411.942 674.008 408.733 675 405 675Z" fill="#F18B82"/>
<path d="M341.127 387C331.793 387 327.127 382.333 327.127 373V364.25C327.127 355.15 331.793 350.6 341.127 350.6H349.527C358.393 350.6 362.827 355.15 362.827 364.25V373C362.827 382.333 358.393 387 349.527 387H341.127Z" fill="#F18B82"/>
<path d="M549.127 387C539.793 387 535.127 382.333 535.127 373V364.25C535.127 355.15 539.793 350.6 549.127 350.6H557.527C566.393 350.6 570.827 355.15 570.827 364.25V373C570.827 382.333 566.393 387 557.527 387H549.127Z" fill="#F18B82"/>
</svg>